<?xml version="1.0" encoding="UTF-8" standalone="no"?>
<svg
   xmlns:dc="http://purl.org/dc/elements/1.1/"
   xmlns:cc="http://creativecommons.org/ns#"
   xmlns:rdf="http://www.w3.org/1999/02/22-rdf-syntax-ns#"
   xmlns:svg="http://www.w3.org/2000/svg"
   xmlns="http://www.w3.org/2000/svg"
   xmlns:sodipodi="http://sodipodi.sourceforge.net/DTD/sodipodi-0.dtd"
   xmlns:inkscape="http://www.inkscape.org/namespaces/inkscape"
   xml:space="preserve"
   version="1.0"
   id="layer1"
   width="400pt"
   height="400pt"
   viewBox="0 0 75 75"
   inkscape:version="0.91 r13725"
   sodipodi:docname="light.svg"><defs
     id="defs12" /><sodipodi:namedview
     pagecolor="#ffffff"
     bordercolor="#666666"
     borderopacity="1"
     objecttolerance="10"
     gridtolerance="10"
     guidetolerance="10"
     inkscape:pageopacity="0"
     inkscape:pageshadow="2"
     inkscape:window-width="1436"
     inkscape:window-height="741"
     id="namedview10"
     showgrid="false"
     inkscape:zoom="1.888"
     inkscape:cx="258.16595"
     inkscape:cy="152.56603"
     inkscape:window-x="255"
     inkscape:window-y="115"
     inkscape:window-maximized="0"
     inkscape:current-layer="g4319"
     showguides="true"
     inkscape:guide-bbox="true" /><metadata
     id="metadata1"><rdf:RDF><cc:Work
         rdf:about=""><dc:format>image/svg+xml</dc:format><dc:type
           rdf:resource="http://purl.org/dc/dcmitype/StillImage" /><dc:title></dc:title></cc:Work></rdf:RDF></metadata><g
     id="g4218"
     transform="translate(42.510561,4.2711865)"
     style="fill:#1ca800;fill-opacity:1"><g
       id="g4319"><path
         sodipodi:nodetypes="sccszzzsccscs"
         inkscape:connector-curvature="0"
         id="path4220"
         d="M -5.0446225,-0.08700682 C -15.451456,-0.1368452 -22.110938,5.7589066 -23.394134,14.294536 c -0.714624,5.632726 1.153555,12.131038 3.220614,16.307519 3.088783,6.124298 4.091217,8.799942 5.114061,13.652345 0.53517,2.538863 -0.01737,3.319328 1.736133,4.686913 1.753503,1.367586 5.5135045,1.205356 8.2951165,1.205275 2.781612,-8.2e-5 6.5426595,0.161932 8.2959975,-1.205861 1.753338,-1.367793 1.1999805,-2.148364 1.73496,-4.686327 1.0228455,-4.852403 2.0252779,-7.528047 5.114063,-13.652344 2.433043,-5.694851 3.970032,-10.607799 3.220605,-16.30752 C 12.054214,5.7589066 5.394731,-0.1368452 -5.0121025,-0.08700682 c -0.00542,2.597e-5 -0.010695,2.64e-4 -0.016115,2.925e-4 -0.00552,-2.968e-5 -0.01089,-2.67e-4 -0.016406,-2.925e-4 z"
         style="fill:#1ca8dd;fill-opacity:1" /><rect
         ry="1"
         rx="1"
         y="50.903637"
         x="-12.763222"
         height="2.9396186"
         width="15.413134"
         id="rect4308"
         style="fill:#1ca8dd;fill-opacity:1;stroke:none;stroke-width:0.30000001;stroke-linejoin:miter;stroke-miterlimit:4;stroke-dasharray:none" /><rect
         style="fill:#1ca8dd;fill-opacity:1;stroke:none;stroke-width:0.30000001;stroke-linejoin:miter;stroke-miterlimit:4;stroke-dasharray:none"
         id="rect4310"
         width="15.413134"
         height="2.9396186"
         x="-12.763222"
         y="54.803635"
         rx="1"
         ry="1" /><rect
         ry="1"
         rx="1"
         y="58.70364"
         x="-12.763222"
         height="2.9396186"
         width="15.413134"
         id="rect4312"
         style="fill:#1ca8dd;fill-opacity:1;stroke:none;stroke-width:0.30000001;stroke-linejoin:miter;stroke-miterlimit:4;stroke-dasharray:none" /><path
         inkscape:connector-curvature="0"
         id="path4314"
         d="m -9.8173766,62.510805 a 5.1122922,5.1122922 0 0 0 3.8800785,3.050978 5.1122922,5.1122922 0 0 0 5.53242153,-3.050978 l -9.41250003,0 z"
         style="fill:#1ca8dd;fill-opacity:1;stroke:none;stroke-width:2;stroke-linejoin:miter;stroke-miterlimit:4;stroke-dasharray:none" /></g></g></svg>